<svg id="Layer_1" data-name="Layer 1" xmlns="http://www.w3.org/2000/svg" viewBox="0 0 1864 523"><defs><style>.cls-1{fill:#b3b3b3;}.cls-2{fill:#fff;}.cls-3{fill:#4d4d4d;}</style></defs><title>adozeneggs</title><path class="cls-1" d="M413.43,337.94c-30,138-140.09,204.48-252.27,180.11S-22.75,387.66,7.23,249.69,170.86-20.89,273.58,2.75C378.4,26.88,443.42,200,413.43,337.94Z"/><path class="cls-2" d="M184.6,358.68q0,6.06-12.61,12.65t-24.31,6.6q-24.48,0-25.55-25.34Q108.65,379,80.25,379,65,379,55.08,369.9t-10-23.36q0-29.24,35-46.36,12-5.7,41.69-11.44v-8.91q0-31.36-3.21-41.38-5.7-18.19-25.68-18.19-12.52,0-20.86,6.78a21.07,21.07,0,0,0-8.39,17.12c0,1.9,1.45,2.84,4.37,2.84s5.51,1.43,7.84,4.3a14.84,14.84,0,0,1,3.48,9.62q0,15.71-15.53,15.69a17.73,17.73,0,0,1-13.42-5.51A19.56,19.56,0,0,1,45.12,257q0-16.77,13.21-28.9Q72.95,214.93,99,214.93q39.24,0,48.16,21.41,3.19,8.22,3.21,32.44v66.7c0,11,.11,17.38.35,19.25,1.19,8.59,4.64,12.85,10.34,12.85a21,21,0,0,0,16.41-7.15c2.37-2.57,4.16-3.9,5.35-3.9S184.6,357.24,184.6,358.68Zm-62.79-37.8v-26Q95.45,300.89,84,310.71T72.6,336.9q0,11.45,6.49,18.73A21,21,0,0,0,95.44,363q15.13,0,24.26-17.14Q121.8,341.9,121.81,320.87Z"/><path class="cls-3" d="M399.19,367.58c0,1.66-1.66,2.5-5,2.5H383.48q-17.49,0-29.59,6.89c-3.33,1.84-5.35,2.74-6.06,2.74-2.16,0-3.22-1.42-3.22-4.28l.35-11q-15.34,15.34-36.39,15.33-30,0-49.4-23.1t-19.43-58.94q0-36.89,19.43-59.81T310,214.93q24.24,0,36.37,17.48V176.76q0-27.1-2.47-33.53-2.1-5.36-6.33-5-10.2,1.06-12.29,1.06c-3.06,0-4.59-1.06-4.59-3.21s1.31-3.21,3.9-3.21l12.77.36q10.61.36,32.6-10a5.5,5.5,0,0,1,2.48-.71q3.53,0,3.53,8.55V271.65q0,84.52,1.43,90.59c.48,1.66,6.06,2.51,16.77,2.51C397.53,364.75,399.19,365.68,399.19,367.58Zm-52.8-89.53q0-34.24-7.47-43.86-9.64-12.13-24.61-12.13-19.28,0-30.69,20t-11.4,53.51q0,32.08,10,54.93a39.27,39.27,0,0,0,12.66,15.87c5.57,4.16,11.36,6.22,17.3,6.22a32.79,32.79,0,0,0,20-6.57q8.92-6.62,11.58-15.88T346.39,278.05Z"/><path class="cls-3" d="M576,297.67q0,34.63-21,58T502.57,379q-32.48,0-54.2-23.37t-21.78-58q0-35.66,21.23-59.21t53-23.54q32.11,0,53.69,23.73T576,297.67Zm-32.46-.34q0-39.26-12.13-61-8.89-16.07-29.95-16.06-20,0-31.22,20.51t-11.23,56.89q0,36,11.94,56.19T504.34,374c10.94,0,19-4.19,24.26-12.5Q543.61,338,543.58,297.34Z"/><path class="cls-3" d="M737.57,323.72a46.45,46.45,0,0,1-1.43,7.85c-4.49,19.25-7.26,33.76-8.18,43.52H621c-6.43,0-9.65-1-9.65-2.85a7.81,7.81,0,0,1,1.08-2.13q7.83-13.84,23.55-41.19l62-104a179.3,179.3,0,0,0-22.47-1.06q-22.83,0-32.1,8.38t-14.63,33.34c-.71,2.85-2.25,4.28-4.64,4.28a2.52,2.52,0,0,1-2.85-2.85c0-.22.84-5.37,2.51-15.33q4.25-25.69,7.12-34.25,25,1.06,94.52,1.06h4.64a4,4,0,0,1,.35,1.79q0,3.89-18.83,35.5-42,71.37-67.62,113.16,9.64.07,23.21.06,42.52,0,52.16-15.56,7.51-12.06,11.42-29.75a4.22,4.22,0,0,1,4.28-3.19C736.75,320.5,737.57,321.58,737.57,323.72Z"/><path class="cls-3" d="M905.87,335.87q0,3.53-5.51,12.64a79.87,79.87,0,0,1-11.26,14.81Q873.76,379,848.11,379q-32.14,0-53.7-23.19t-21.57-57.43q0-35.64,20.51-59.57t51.18-23.89q25.34,0,42.44,14.8t18.2,38c-7.64,1.19-17.72,1.66-30.33,1.43h-25q-2.51,0-42.8,1.06a146.5,146.5,0,0,0-1.79,22.41q0,35.88,13.73,55.24t38.71,19.38q14.25,0,22.81-6.43t18.56-24.6c1-1.9,2.27-2.87,3.93-2.87C904.92,333.34,905.87,334.17,905.87,335.87Zm-31-72.79q-1.42-42.79-30.65-42.8-28.9,0-36.05,42.8Z"/><path class="cls-3" d="M1105.21,372.77c0,1.77-1.8,2.66-5.38,2.66h-65.63c-3.06,0-4.64-.82-4.64-2.48a2.07,2.07,0,0,1,2-2.14c1.32-.23,5.9-.48,13.76-.69,4.51-.27,7.12-.9,7.83-2s1.06-4.91,1.06-11.55V288.25q0-38.78-2.83-46.24-6.09-16-24.26-16-17.83,0-30,15.66c-2.38,3.11-3.58,7.36-3.58,12.82v111c0,2.87,2.55,4.38,7.64,4.66l10.86.34c2.42,0,3.61.84,3.61,2.5s-1.41,2.48-4.25,2.48H946.45q-5.31,0-5.32-2.17c0-1.47,2.13-2.38,6.41-2.8h8.93c3.54,0,5.7-.82,6.41-2.48l1.06-5.35V285.08q0-40.57-.71-44.83c-.48-2.85-3.45-4.28-8.92-4.28H944c-4.77,0-7.12-.87-7.12-2.66,0-2.27,2.48-3.4,7.47-3.4a95.73,95.73,0,0,0,23.2-3.93Q980,222.43,985,217.79c2.16-1.9,3.8-2.87,5-2.87,1.67,0,2.51,2.25,2.51,6.78v17.11q18.56-23.9,47.81-23.89,25.66,0,37.08,18.9,6.43,10.73,6.41,40.67v81.31c0,7.63.36,11.77,1.1,12.5,1.42,1.43,4.86,2.14,10.31,2.14h6.44C1104,370.45,1105.21,371.22,1105.21,372.77Z"/><path class="cls-3" d="M1350.54,335.87q0,3.53-5.51,12.64a79.8,79.8,0,0,1-11.24,14.81q-15.36,15.68-41,15.69-32.09,0-53.7-23.19t-21.59-57.43q0-35.64,20.52-59.57t51.19-23.89q25.32,0,42.43,14.8t18.2,38q-11.41,1.79-30.32,1.43h-25q-2.47,0-42.82,1.06a153,153,0,0,0-1.77,22.41q0,35.88,13.73,55.24t38.72,19.38q14.26,0,22.81-6.43t18.56-24.6c.94-1.9,2.25-2.87,3.93-2.87C1349.57,333.34,1350.54,334.17,1350.54,335.87Zm-31-72.79q-1.4-42.79-30.67-42.8-28.9,0-36,42.8Z"/><path class="cls-3" d="M1552.37,236q0,16.41-14.63,16.41a14.09,14.09,0,0,1-9.12-3.38c-2.71-2.27-4.06-4.81-4.06-7.68a14.37,14.37,0,0,1,1.06-4.45,15.51,15.51,0,0,0,1.06-4.82c0-3.08-1.68-4.64-5-4.64-2.87,0-5.57,1.48-8.21,4.46s-3.93,6-3.93,9.1c0,.71.61,4.75,1.81,12.11a119.08,119.08,0,0,1,1.77,16.77q0,24.26-16.75,40.65t-41.75,16.43c-4.25,0-12.12-1.8-23.52-5.36a27.36,27.36,0,0,0-6.09-1.42c-5,0-9.5,2-13.53,6.06s-6.05,8.44-6.05,13.19q0,18.53,22.45,18.54c5.7,0,14.85-1,27.48-3.22a160.31,160.31,0,0,1,26.74-2.48q21.74,0,34.05,11.4t12.31,31.75q0,30.69-26.19,51t-66.2,20.33q-29.57,0-46.52-12t-16.94-33q0-20.32,15.69-30.67,7.87-5,25-8.92-25.32-10-25.32-30.67,0-25.71,32.8-35.68-21.36-16.75-21.39-44.22,0-25.69,16.43-41.19t43.14-15.53q14.64,0,23.71,3.93t21.23,15.69q11.4-16.77,28.19-16.75Q1552.39,217.79,1552.37,236Zm-38.89,171.92q0-29.6-34.82-29.59-10,0-29.35,3.19t-29,3.21q-18.12,9.67-18.11,33.91,0,18.19,13,29.23t34.31,11.07q27,0,45.49-14.8T1513.49,407.89ZM1486,271.27q0-51.71-28.54-51.71-27.84,0-27.8,48.15,0,54.22,29.58,54.22Q1486,321.93,1486,271.27Z"/><path class="cls-3" d="M1736,236q0,16.41-14.63,16.41a14,14,0,0,1-9.09-3.38c-2.74-2.27-4.09-4.81-4.09-7.68a15.49,15.49,0,0,1,1.06-4.45,15.41,15.41,0,0,0,1.07-4.82c0-3.08-1.68-4.64-5-4.64-2.84,0-5.61,1.48-8.22,4.46s-3.9,6-3.9,9.1c0,.71.58,4.75,1.77,12.11a114,114,0,0,1,1.77,16.77q0,24.26-16.75,40.65t-41.75,16.43c-4.25,0-12.11-1.8-23.52-5.36a27.59,27.59,0,0,0-6.06-1.42c-5,0-9.53,2-13.56,6.06s-6.09,8.44-6.09,13.19q0,18.53,22.52,18.54c5.7,0,14.82-1,27.45-3.22a160.27,160.27,0,0,1,26.74-2.48q21.74,0,34.05,11.4t12.34,31.75q0,30.69-26.26,51c-17.43,13.55-39.53,20.33-66.14,20.33q-29.62,0-46.55-12t-16.94-33q0-20.32,15.69-30.67,7.88-5,25-8.92-25.32-10-25.29-30.67,0-25.71,32.8-35.68Q1583,299.11,1583,271.65q0-25.69,16.4-41.19t43.14-15.53q14.64,0,23.74,3.93t21.23,15.69q11.41-16.77,28.16-16.75Q1736,217.79,1736,236Zm-38.89,171.92q0-29.6-34.82-29.59c-6.64,0-16.4,1.06-29.35,3.19s-22.58,3.21-29,3.21q-18.17,9.67-18.14,33.91,0,18.19,13,29.23t34.34,11.07q27,0,45.49-14.8T1697.12,407.89Zm-27.45-136.61q0-51.71-28.54-51.71-27.83,0-27.8,48.15,0,54.22,29.61,54.22Q1669.66,321.93,1669.67,271.27Z"/><path class="cls-3" d="M1864,329.3a47.06,47.06,0,0,1-15,35.23A50,50,0,0,1,1813,379c-8,0-17.85-2.88-29.41-8.55a17.57,17.57,0,0,0-8.15-2.51q-4.93,0-7.45,6.8c-.93,2.83-2.22,4.27-3.86,4.27s-2.48-.95-2.48-2.88V328.36c0-2.61.81-3.93,2.48-3.93,1.9,0,3,1.32,3.22,3.95q2.13,16.55,9.28,25.88,14.21,18.65,38.18,18.69c8.53,0,15.43-2.53,20.65-7.52s7.86-11.68,7.86-20c0-9.28-3-16.67-8.92-22.15a38,38,0,0,0-9.09-6.62q-4.1-2-24.1-9.47-39.57-15-39.56-45c0-13.34,4.48-24.56,13.44-33.6s20.07-13.6,33.28-13.6q7.05,0,21.2,4.28a22.33,22.33,0,0,0,6.38,1.06c5,0,8-2.37,9.21-7.14.71-2.37,1.77-3.56,3.19-3.56,1.64,0,2.45.95,2.45,2.85v17.12c-.22,5.7.36,14.87,1.81,27.46v.71a2.53,2.53,0,0,1-2.87,2.85c-1.42,0-3.19-3.59-5.35-10.79a41.56,41.56,0,0,0-13.73-20.88A35,35,0,0,0,1808,221c-8.12,0-14.73,2.51-20,7.51a25.08,25.08,0,0,0-7.86,19q0,17.86,23.9,27.17,37.12,14.64,47.07,24.29A40.86,40.86,0,0,1,1864,329.3Z"/></svg>
